{
  "accessors": [
    {
      "bufferView": 2,
      "componentType": 5126,
      "count": 17116,
      "max": [
        47.05759811401367,
        51.71229934692383,
        100.16120147705078
      ],
      "min": [
        -47.05759811401367,
        -51.74300003051758,
        6.111400127410889
      ],
      "type": "VEC3"
    },
    {
      "bufferView": 2,
      "byteOffset": 205392,
      "componentType": 5126,
      "count": 17116,
      "max": [
        0.9999997615814209,
        0.9999996423721313,
        0.9999706745147705
      ],
      "min": [
        -0.9999997615814209,
        -0.9999998807907104,
        -1.0
      ],
      "type": "VEC3"
    },
    {
      "bufferView": 3,
      "componentType": 5126,
      "count": 17116,
      "max": [
        1.0,
        0.9999995827674866,
        0.9999178051948547,
        1.0
      ],
      "min": [
        -1.0,
        -0.9999841451644897,
        -0.9999551773071289,
        -1.0
      ],
      "type": "VEC4"
    },
    {
      "bufferView": 1,
      "componentType": 5126,
      "count": 17116,
      "max": [
        0.9304999709129333,
        0.9901000261306763
      ],
      "min": [
        0.0010999999940395355,
        0.0010000000474974513
      ],
      "type": "VEC2"
    },
    {
      "bufferView": 0,
      "componentType": 5125,
      "count": 96828,
      "type": "SCALAR"
    },
    {
      "bufferView": 2,
      "byteOffset": 410784,
      "componentType": 5126,
      "count": 3256,
      "max": [
        43.97650146484375,
        27.471500396728516,
        6.805799961090088
      ],
      "min": [
        -44.054100036621094,
        -47.54169845581055,
        0.0
      ],
      "type": "VEC3"
    },
    {
      "bufferView": 2,
      "byteOffset": 449856,
      "componentType": 5126,
      "count": 3256,
      "max": [
        0.9988036751747131,
        0.998573362827301,
        1.0
      ],
      "min": [
        -0.9988036751747131,
        -0.998573362827301,
        -1.0
      ],
      "type": "VEC3"
    },
    {
      "bufferView": 3,
      "byteOffset": 273856,
      "componentType": 5126,
      "count": 3256,
      "max": [
        1.0,
        1.0,
        0.8696447014808655,
        1.0
      ],
      "min": [
        -1.0,
        -1.0,
        -0.6932225227355957,
        1.0
      ],
      "type": "VEC4"
    },
    {
      "bufferView": 1,
      "byteOffset": 136928,
      "componentType": 5126,
      "count": 3256,
      "max": [
        0.98580002784729,
        0.9951000213623047
      ],
      "min": [
        0.0010999999940395355,
        0.0010999999940395355
      ],
      "type": "VEC2"
    },
    {
      "bufferView": 0,
      "byteOffset": 387312,
      "componentType": 5125,
      "count": 16320,
      "type": "SCALAR"
    }
  ],
  "asset": {
    "extras": {
      "author": "SimeonJekov (https://sketchfab.com/SimeonJekov)",
      "license": "CC-BY-4.0 (http://creativecommons.org/licenses/by/4.0/)",
      "source": "https://sketchfab.com/3d-models/armchair-0dd653159d44497f9173c5371a9d13d7",
      "title": "Armchair"
    },
    "generator": "Sketchfab-12.68.0",
    "version": "2.0"
  },
  "bufferViews": [
    {
      "buffer": 0,
      "byteLength": 452592,
      "name": "floatBufferViews",
      "target": 34963
    },
    {
      "buffer": 0,
      "byteLength": 162976,
      "byteOffset": 452592,
      "byteStride": 8,
      "name": "floatBufferViews",
      "target": 34962
    },
    {
      "buffer": 0,
      "byteLength": 488928,
      "byteOffset": 615568,
      "byteStride": 12,
      "name": "floatBufferViews",
      "target": 34962
    },
    {
      "buffer": 0,
      "byteLength": 325952,
      "byteOffset": 1104496,
      "byteStride": 16,
      "name": "floatBufferViews",
      "target": 34962
    }
  ],
  "buffers": [
    {
      "byteLength": 1430448,
      "uri": "scene.bin"
    }
  ],
  "images": [
    {
      "uri": "textures/Walton_Armchair_baseColor.png"
    },
    {
      "uri": "textures/Walton_Armchair_metallicRoughness.png"
    },
    {
      "uri": "textures/Walton_Armchair_normal.png"
    }
  ],
  "materials": [
    {
      "doubleSided": true,
      "name": "Walton_Armchair",
      "normalTexture": {
        "index": 2
      },
      "occlusionTexture": {
        "index": 1
      },
      "pbrMetallicRoughness": {
        "baseColorTexture": {
          "index": 0
        },
        "metallicRoughnessTexture": {
          "index": 1
        }
      }
    }
  ],
  "meshes": [
    {
      "name": "Object_0",
      "primitives": [
        {
          "attributes": {
            "NORMAL": 1,
            "POSITION": 0,
            "TANGENT": 2,
            "TEXCOORD_0": 3
          },
          "indices": 4,
          "material": 0,
          "mode": 4
        }
      ]
    },
    {
      "name": "Object_1",
      "primitives": [
        {
          "attributes": {
            "NORMAL": 6,
            "POSITION": 5,
            "TANGENT": 7,
            "TEXCOORD_0": 8
          },
          "indices": 9,
          "material": 0,
          "mode": 4
        }
      ]
    }
  ],
  "nodes": [
    {
      "children": [
        1
      ],
      "matrix": [
        1.0,
        0.0,
        0.0,
        0.0,
        0.0,
        2.220446049250313e-16,
        -1.0,
        0.0,
        0.0,
        1.0,
        2.220446049250313e-16,
        0.0,
        0.0,
        0.0,
        0.0,
        1.0
      ],
      "name": "Sketchfab_model"
    },
    {
      "children": [
        2,
        3
      ],
      "name": "Walton_Armchair_001.obj.cleaner.materialmerger.gles"
    },
    {
      "mesh": 0,
      "name": "Object_2"
    },
    {
      "mesh": 1,
      "name": "Object_3"
    }
  ],
  "samplers": [
    {
      "magFilter": 9729,
      "minFilter": 9987,
      "wrapS": 10497,
      "wrapT": 10497
    }
  ],
  "scene": 0,
  "scenes": [
    {
      "name": "Sketchfab_Scene",
      "nodes": [
        0
      ]
    }
  ],
  "textures": [
    {
      "sampler": 0,
      "source": 0
    },
    {
      "sampler": 0,
      "source": 1
    },
    {
      "sampler": 0,
      "source": 2
    }
  ]
}
